<?xml version="1.0" encoding="UTF-8"?>
<svg width="600px" height="200px" viewBox="0 0 600 200" version="1.1" xmlns="http://www.w3.org/2000/svg" xmlns:xlink="http://www.w3.org/1999/xlink">
    <title>Header Photo Copy 3</title>
    <defs>
        <rect id="path-1" x="0" y="0" width="73" height="74"></rect>
        <linearGradient x1="50%" y1="0%" x2="50%" y2="100%" id="linearGradient-3">
            <stop stop-color="#6236FF" stop-opacity="0.71" offset="0%"></stop>
            <stop stop-color="#6236FF" offset="100%"></stop>
        </linearGradient>
    </defs>
    <g id="Header-Photo-Copy-3" stroke="none" stroke-width="1" fill="none" fill-rule="evenodd">
        <g id="Group" transform="translate(180.000000, 63.000000)" fill-rule="nonzero">
            <path d="M164.296875,64.03125 C166.828125,64.03125 169.195312,63.4140625 171.398438,62.1796875 C173.601562,60.9453125 175.359375,59.4375 176.671875,57.65625 L176.671875,57.65625 L176.90625,58.828125 C177.15625,60.296875 177.492188,61.4296875 177.914062,62.2265625 C178.335938,63.0234375 179.046875,63.421875 180.046875,63.421875 C180.953125,63.421875 182.148438,63.328125 183.632812,63.140625 C185.117188,62.953125 186.4375,62.65625 187.59375,62.25 C188.75,61.84375 189.328125,61.328125 189.328125,60.703125 C189.328125,60.359375 189.25,59.765625 189.09375,58.921875 C188.875,57.640625 188.695312,56.2578125 188.554688,54.7734375 C188.414062,53.2890625 188.34375,51.234375 188.34375,48.609375 L188.34375,48.609375 L188.34375,22.21875 C188.34375,21.34375 187.9375,20.6875 187.125,20.25 C186.3125,19.8125 185.046875,19.59375 183.328125,19.59375 L183.328125,19.59375 L181.03125,19.59375 C179.3125,19.59375 178.046875,19.8125 177.234375,20.25 C176.421875,20.6875 176.015625,21.34375 176.015625,22.21875 L176.015625,22.21875 L176.015625,48.984375 C175.390625,50.234375 174.507812,51.3515625 173.367188,52.3359375 C172.226562,53.3203125 170.890625,53.8125 169.359375,53.8125 C167.578125,53.8125 166.296875,53.375 165.515625,52.5 C164.734375,51.625 164.34375,50.328125 164.34375,48.609375 L164.34375,48.609375 L164.34375,22.21875 C164.34375,21.34375 163.9375,20.6875 163.125,20.25 C162.3125,19.8125 161.046875,19.59375 159.328125,19.59375 L159.328125,19.59375 L157.03125,19.59375 C155.3125,19.59375 154.046875,19.8125 153.234375,20.25 C152.421875,20.6875 152.015625,21.34375 152.015625,22.21875 L152.015625,22.21875 L152.015625,50.484375 C152.015625,55.109375 153.015625,58.5234375 155.015625,60.7265625 C157.015625,62.9296875 160.109375,64.03125 164.296875,64.03125 Z" id="u" fill="#44D7B6" opacity="0.162902425"></path>
            <path d="M119.390625,19.078125 C121.921875,19.078125 124.171875,19.65625 126.140625,20.8125 C128.109375,21.96875 129.59375,23.46875 130.59375,25.3125 L130.59375,25.3125 L131.015625,23.53125 L131.07581,23.2685185 C131.230131,22.5895062 131.335069,22.0833333 131.390625,21.75 C131.578125,20.90625 132.0625,20.3359375 132.84375,20.0390625 C133.625,19.7421875 134.75,19.59375 136.21875,19.59375 L136.21875,19.59375 L137.25,19.59375 L137.587604,19.5966667 C139.13441,19.6238889 140.279687,19.8416667 141.023438,20.25 C141.820312,20.6875 142.21875,21.34375 142.21875,22.21875 L142.21875,22.21875 L142.21875,77.8125 L142.212651,78.0032286 C142.159798,78.8146923 141.763393,79.4308036 141.023438,79.8515625 C140.226562,80.3046875 138.96875,80.53125 137.25,80.53125 L137.25,80.53125 L134.90625,80.53125 L134.568542,80.5282292 C133.020764,80.5000347 131.867708,80.2744792 131.109375,79.8515625 C130.296875,79.3984375 129.890625,78.71875 129.890625,77.8125 L129.890625,77.8125 L129.890625,61.40625 L129.547682,61.6394628 C127.132845,63.2339876 124.419034,64.03125 121.40625,64.03125 C117.625,64.03125 114.382812,63.109375 111.679688,61.265625 C108.976562,59.421875 106.921875,56.8125 105.515625,53.4375 C104.109375,50.0625 103.40625,46.109375 103.40625,41.578125 C103.40625,36.859375 104.085938,32.8046875 105.445312,29.4140625 C106.804688,26.0234375 108.695312,23.453125 111.117188,21.703125 C113.539062,19.953125 116.296875,19.078125 119.390625,19.078125 Z M123.09375,29.15625 C120.6875,29.15625 118.882812,30.2109375 117.679688,32.3203125 C116.476562,34.4296875 115.875,37.515625 115.875,41.578125 C115.875,45.765625 116.554688,48.921875 117.914062,51.046875 C119.273438,53.171875 121.3125,54.234375 124.03125,54.234375 C126.09375,54.234375 128.046875,53.703125 129.890625,52.640625 L129.890625,52.640625 L129.890625,34.078125 L129.710881,33.7657063 C127.900267,30.6927354 125.694556,29.15625 123.09375,29.15625 Z" id="q" fill="#44D7B6" opacity="0.317263649"></path>
            <path d="M287.421875,81.53125 C290.109375,81.53125 291.65625,80.9375 292.0625,79.75 L292.0625,79.75 L311.1875,23.921875 C311.34375,23.234375 311.421875,22.734375 311.421875,22.421875 C311.421875,21.796875 311.023438,21.3359375 310.226562,21.0390625 C309.429688,20.7421875 308.171875,20.59375 306.453125,20.59375 L306.453125,20.59375 L304.4375,20.59375 C303.125,20.59375 302.070312,20.71875 301.273438,20.96875 C300.476562,21.21875 299.96875,21.671875 299.75,22.328125 L299.75,22.328125 L294.875,37.703125 C294.5,38.765625 293.796875,41.796875 292.765625,46.796875 C292.640625,47.234375 292.5625,47.5625 292.53125,47.78125 L292.53125,47.78125 L292.15625,47.78125 L291.828125,46.1875 C291.734375,45.78125 291.453125,44.5078125 290.984375,42.3671875 C290.515625,40.2265625 290.125,38.671875 289.8125,37.703125 L289.8125,37.703125 L284.9375,22.328125 C284.75,21.703125 284.257812,21.2578125 283.460938,20.9921875 C282.664062,20.7265625 281.609375,20.59375 280.296875,20.59375 L280.296875,20.59375 L277.578125,20.59375 C275.828125,20.59375 274.546875,20.7421875 273.734375,21.0390625 C272.921875,21.3359375 272.515625,21.796875 272.515625,22.421875 C272.515625,22.578125 272.5625,22.8203125 272.65625,23.1484375 C272.75,23.4765625 272.8125,23.734375 272.84375,23.921875 L272.84375,23.921875 L286.625,64.328125 L281.328125,78.25 C281.109375,78.78125 281,79.28125 281,79.75 C281,80.9375 282.671875,81.53125 286.015625,81.53125 L286.015625,81.53125 L287.421875,81.53125 Z" id="Path" fill="#FA6400"></path>
            <path d="M255.734375,65.03125 C257.109375,65.03125 258.953125,64.84375 261.265625,64.46875 C263.578125,64.09375 265.671875,63.46875 267.546875,62.59375 C269.421875,61.71875 270.359375,60.5625 270.359375,59.125 C270.359375,58.5625 270.117188,57.765625 269.632812,56.734375 C269.148438,55.703125 268.570312,54.7890625 267.898438,53.9921875 C267.226562,53.1953125 266.609375,52.796875 266.046875,52.796875 C265.890625,52.796875 265.65625,52.859375 265.34375,52.984375 C265.03125,53.109375 264.765625,53.21875 264.546875,53.3125 C263.390625,53.875 262.171875,54.3359375 260.890625,54.6953125 C259.609375,55.0546875 258.109375,55.234375 256.390625,55.234375 C253.265625,55.234375 250.992188,54.1953125 249.570312,52.1171875 C248.148438,50.0390625 247.4375,46.828125 247.4375,42.484375 C247.4375,38.171875 248.1875,34.9765625 249.6875,32.8984375 C251.1875,30.8203125 253.578125,29.78125 256.859375,29.78125 C258.390625,29.78125 259.6875,29.9453125 260.75,30.2734375 C261.8125,30.6015625 262.9375,31.046875 264.125,31.609375 C264.875,32.046875 265.359375,32.265625 265.578125,32.265625 C266.046875,32.265625 266.632812,31.8515625 267.335938,31.0234375 C268.039062,30.1953125 268.664062,29.25 269.210938,28.1875 C269.757812,27.125 270.03125,26.34375 270.03125,25.84375 C270.03125,24.625 269.320312,23.5859375 267.898438,22.7265625 C266.476562,21.8671875 264.695312,21.2109375 262.554688,20.7578125 C260.414062,20.3046875 258.296875,20.078125 256.203125,20.078125 C248.859375,20.078125 243.453125,21.984375 239.984375,25.796875 C236.515625,29.609375 234.78125,35.28125 234.78125,42.8125 C234.78125,50.28125 236.5,55.8515625 239.9375,59.5234375 C243.375,63.1953125 248.640625,65.03125 255.734375,65.03125 Z" id="Path" fill="#FA6400"></path>
            <path d="M197.328125,64.46875 C200.703125,64.46875 202.390625,63.59375 202.390625,61.84375 L202.390625,61.84375 L202.390625,35.078125 C202.984375,33.859375 203.859375,32.75 205.015625,31.75 C206.171875,30.75 207.5,30.25 209,30.25 C210.78125,30.25 212.070312,30.6875 212.867188,31.5625 C213.664062,32.4375 214.0625,33.71875 214.0625,35.40625 L214.0625,35.40625 L214.0625,61.84375 C214.0625,63.59375 215.71875,64.46875 219.03125,64.46875 L219.03125,64.46875 L221.328125,64.46875 C224.703125,64.46875 226.390625,63.59375 226.390625,61.84375 L226.390625,61.84375 L226.390625,33.53125 C226.390625,28.9375 225.390625,25.546875 223.390625,23.359375 C221.390625,21.171875 218.296875,20.078125 214.109375,20.078125 C211.578125,20.078125 209.210938,20.6953125 207.007812,21.9296875 C204.804688,23.1640625 203.046875,24.65625 201.734375,26.40625 L201.734375,26.40625 L201.453125,25.1875 C201.140625,23.8125 200.789062,22.765625 200.398438,22.046875 C200.007812,21.328125 199.328125,20.96875 198.359375,20.96875 C197.453125,20.96875 196.257812,21.0625 194.773438,21.25 C193.289062,21.4375 191.960938,21.7265625 190.789062,22.1171875 C189.617188,22.5078125 189.03125,23.015625 189.03125,23.640625 C189.03125,23.984375 189.109375,24.578125 189.265625,25.421875 C189.796875,28.078125 190.0625,31.40625 190.0625,35.40625 L190.0625,35.40625 L190.0625,61.84375 C190.0625,63.59375 191.71875,64.46875 195.03125,64.46875 L195.03125,64.46875 L197.328125,64.46875 Z" id="Path" fill="#FA6400"></path>
            <path d="M163.671875,20.078125 C167.859375,20.078125 171.289062,21.03125 173.960938,22.9375 C176.632812,24.84375 178.585938,27.40625 179.820312,30.625 C181.054688,33.84375 181.671875,37.484375 181.671875,41.546875 C181.671875,42.015625 181.398438,42.640625 180.851562,43.421875 C180.304688,44.203125 179.6875,44.90625 179,45.53125 C178.3125,46.15625 177.78125,46.46875 177.40625,46.46875 L177.40625,46.46875 L156.171875,46.46875 L156.208812,46.8467875 C156.529812,49.8353875 157.462812,51.9671875 159.007812,53.2421875 C160.617188,54.5703125 162.859375,55.234375 165.734375,55.234375 C167.296875,55.234375 168.710938,55.0546875 169.976562,54.6953125 C171.242188,54.3359375 172.59375,53.859375 174.03125,53.265625 C174.90625,52.859375 175.5,52.65625 175.8125,52.65625 C176.375,52.65625 176.992188,53.0546875 177.664062,53.8515625 C178.335938,54.6484375 178.914062,55.5625 179.398438,56.59375 C179.882812,57.625 180.125,58.421875 180.125,58.984375 C180.125,60.265625 179.257812,61.359375 177.523438,62.265625 C175.789062,63.171875 173.742188,63.859375 171.382812,64.328125 C169.023438,64.796875 166.953125,65.03125 165.171875,65.03125 C157.859375,65.03125 152.40625,63.0703125 148.8125,59.1484375 C145.21875,55.2265625 143.421875,49.78125 143.421875,42.8125 C143.421875,34.96875 145.21875,29.21875 148.8125,25.5625 C152.40625,21.90625 157.359375,20.078125 163.671875,20.078125 Z M163.671875,29.78125 C159.546875,29.78125 157.046875,32.609375 156.171875,38.265625 L156.171875,38.265625 L169.671875,38.265625 C169.671875,35.703125 169.171875,33.6484375 168.171875,32.1015625 C167.171875,30.5546875 165.671875,29.78125 163.671875,29.78125 Z" id="Path-3" fill="#FA6400" opacity="0.905841646"></path>
            <path d="M123.96875,65.03125 C125.34375,65.03125 127.1875,64.84375 129.5,64.46875 C131.8125,64.09375 133.90625,63.46875 135.78125,62.59375 C137.65625,61.71875 138.59375,60.5625 138.59375,59.125 C138.59375,58.5625 138.351562,57.765625 137.867188,56.734375 C137.382812,55.703125 136.804688,54.7890625 136.132812,53.9921875 C135.460938,53.1953125 134.84375,52.796875 134.28125,52.796875 C134.125,52.796875 133.890625,52.859375 133.578125,52.984375 C133.265625,53.109375 133,53.21875 132.78125,53.3125 C131.625,53.875 130.40625,54.3359375 129.125,54.6953125 C127.84375,55.0546875 126.34375,55.234375 124.625,55.234375 C121.5,55.234375 119.226562,54.1953125 117.804688,52.1171875 C116.382812,50.0390625 115.671875,46.828125 115.671875,42.484375 C115.671875,38.171875 116.421875,34.9765625 117.921875,32.8984375 C119.421875,30.8203125 121.8125,29.78125 125.09375,29.78125 C126.625,29.78125 127.921875,29.9453125 128.984375,30.2734375 C130.046875,30.6015625 131.171875,31.046875 132.359375,31.609375 C133.109375,32.046875 133.59375,32.265625 133.8125,32.265625 C134.28125,32.265625 134.867188,31.8515625 135.570312,31.0234375 C136.273438,30.1953125 136.898438,29.25 137.445312,28.1875 C137.992188,27.125 138.265625,26.34375 138.265625,25.84375 C138.265625,24.625 137.554688,23.5859375 136.132812,22.7265625 C134.710938,21.8671875 132.929688,21.2109375 130.789062,20.7578125 C128.648438,20.3046875 126.53125,20.078125 124.4375,20.078125 C117.09375,20.078125 111.6875,21.984375 108.21875,25.796875 C104.75,29.609375 103.015625,35.28125 103.015625,42.8125 C103.015625,50.28125 104.734375,55.8515625 108.171875,59.5234375 C111.609375,63.1953125 116.875,65.03125 123.96875,65.03125 Z" id="Path" fill="#FA6400" opacity="0.808324178"></path>
            <path d="M78.703125,19.078125 C82.890625,19.078125 86.3203125,20.03125 88.9921875,21.9375 C91.6640625,23.84375 93.6171875,26.40625 94.8515625,29.625 C96.0859375,32.84375 96.703125,36.484375 96.703125,40.546875 C96.703125,41.015625 96.4296875,41.640625 95.8828125,42.421875 C95.3359375,43.203125 94.71875,43.90625 94.03125,44.53125 C93.34375,45.15625 92.8125,45.46875 92.4375,45.46875 L92.4375,45.46875 L71.203125,45.46875 L71.2400625,45.8467875 C71.5610625,48.8353875 72.4940625,50.9671875 74.0390625,52.2421875 C75.6484375,53.5703125 77.890625,54.234375 80.765625,54.234375 C82.328125,54.234375 83.7421875,54.0546875 85.0078125,53.6953125 C86.2734375,53.3359375 87.625,52.859375 89.0625,52.265625 C89.9375,51.859375 90.53125,51.65625 90.84375,51.65625 C91.40625,51.65625 92.0234375,52.0546875 92.6953125,52.8515625 C93.3671875,53.6484375 93.9453125,54.5625 94.4296875,55.59375 C94.9140625,56.625 95.15625,57.421875 95.15625,57.984375 C95.15625,59.265625 94.2890625,60.359375 92.5546875,61.265625 C90.8203125,62.171875 88.7734375,62.859375 86.4140625,63.328125 C84.0546875,63.796875 81.984375,64.03125 80.203125,64.03125 C72.890625,64.03125 67.4375,62.0703125 63.84375,58.1484375 C60.25,54.2265625 58.453125,48.78125 58.453125,41.8125 C58.453125,33.96875 60.25,28.21875 63.84375,24.5625 C67.4375,20.90625 72.390625,19.078125 78.703125,19.078125 Z M78.703125,28.78125 C74.578125,28.78125 72.078125,31.609375 71.203125,37.265625 L71.203125,37.265625 L84.703125,37.265625 C84.703125,34.703125 84.203125,32.6484375 83.203125,31.1015625 C82.203125,29.5546875 80.703125,28.78125 78.703125,28.78125 Z" id="Path-2" fill="#44D7B6" opacity="0.868436541"></path>
            <path d="M36.9375,63.46875 C40.3125,63.46875 42,62.59375 42,60.84375 L42,60.84375 L42,34.078125 C42.59375,33.015625 43.4609375,32.0546875 44.6015625,31.1953125 C45.7421875,30.3359375 47.078125,29.90625 48.609375,29.90625 C49.265625,29.90625 50.0625,30.03125 51,30.28125 C51.6875,30.46875 52.203125,30.5625 52.546875,30.5625 C53.046875,30.5625 53.5,30.125 53.90625,29.25 C54.3125,28.375 54.625,27.3671875 54.84375,26.2265625 C55.0625,25.0859375 55.171875,24.203125 55.171875,23.578125 C55.171875,22.421875 54.828125,21.3828125 54.140625,20.4609375 C53.453125,19.5390625 52.203125,19.078125 50.390625,19.078125 C48.203125,19.078125 46.4140625,19.6484375 45.0234375,20.7890625 C43.6328125,21.9296875 42.40625,23.46875 41.34375,25.40625 L41.34375,25.40625 L41.0625,24.1875 C40.75,22.8125 40.3984375,21.765625 40.0078125,21.046875 C39.6171875,20.328125 38.9375,19.96875 37.96875,19.96875 C37.0625,19.96875 35.8671875,20.0625 34.3828125,20.25 C32.8984375,20.4375 31.5703125,20.7265625 30.3984375,21.1171875 C29.2265625,21.5078125 28.640625,22.015625 28.640625,22.640625 C28.640625,22.984375 28.71875,23.578125 28.875,24.421875 C29.40625,27.078125 29.671875,30.40625 29.671875,34.40625 L29.671875,34.40625 L29.671875,60.84375 C29.671875,62.59375 31.328125,63.46875 34.640625,63.46875 L34.640625,63.46875 L36.9375,63.46875 Z" id="Path" fill="#44D7B6"></path>
            <path d="M11.296875,63.46875 C14.640625,63.46875 16.3125,62.59375 16.3125,60.84375 L16.3125,60.84375 L16.3125,29.484375 L20.484375,29.484375 C21.359375,29.484375 21.9921875,29.15625 22.3828125,28.5 C22.7734375,27.84375 22.96875,26.78125 22.96875,25.3125 L22.96875,25.3125 L22.96875,23.90625 C22.96875,22.4375 22.7734375,21.375 22.3828125,20.71875 C21.9921875,20.0625 21.359375,19.734375 20.484375,19.734375 L20.484375,19.734375 L16.3125,19.734375 L16.3125,13.3125 C16.3125,12.03125 16.5390625,11.1171875 16.9921875,10.5703125 C17.4453125,10.0234375 18.21875,9.75 19.3125,9.75 C19.6875,9.75 20.1875,9.8125 20.8125,9.9375 C21.21875,10.03125 21.5625,10.078125 21.84375,10.078125 C22.34375,10.078125 22.7890625,9.6640625 23.1796875,8.8359375 C23.5703125,8.0078125 23.8828125,7.09375 24.1171875,6.09375 C24.3515625,5.09375 24.46875,4.421875 24.46875,4.078125 C24.46875,1.359375 21.703125,0 16.171875,0 C8.046875,0 3.984375,4.5 3.984375,13.5 L3.984375,13.5 L3.984375,19.734375 L2.484375,19.734375 C1.609375,19.734375 0.9765625,20.0625 0.5859375,20.71875 C0.1953125,21.375 0,22.4375 0,23.90625 L0,23.90625 L0,25.3125 C0,26.78125 0.1953125,27.84375 0.5859375,28.5 C0.9765625,29.15625 1.609375,29.484375 2.484375,29.484375 L2.484375,29.484375 L3.984375,29.484375 L3.984375,60.84375 C3.984375,62.59375 5.640625,63.46875 8.953125,63.46875 L8.953125,63.46875 L11.296875,63.46875 Z" id="f" fill="#44D7B6"></path>
        </g>
        <g id="Group" transform="translate(108.368000, 38.000000)">
            <g id="ln2" transform="translate(9.132000, 0.366000)">
                <path d="M11.494,11.732 C12.012,11.732 12.264,11.382 12.264,11.032 C12.264,10.766 12.082,10.332 11.466,10.36 C11.27,10.346 11.242,10.206 11.242,10.094 L11.2420869,10.0128845 L11.2420869,10.0128845 L11.242774,9.77513215 C11.2475505,8.44535068 11.2740645,4.16883871 11.312,2.702 L11.312,2.618 L11.312,2.618 C11.312,1.624 10.85,1.19 9.842,1.176 C9.702,1.176 9.562,1.19 9.394,1.19 C8.932,1.19 8.694,1.582 8.694,1.946 C8.694,2.31 8.904,2.646 9.324,2.646 L9.478,2.646 L9.478,2.646 C9.828,2.646 9.87,2.8 9.87,3.192 L9.86912371,5.17419458 C9.86855469,5.50196942 9.86772392,5.84709932 9.86667693,6.19651964 L9.86494996,6.72223482 C9.85962963,8.21162414 9.85081481,9.66051852 9.842,10.066 C9.842,10.318 9.786,10.36 9.604,10.36 L9.38,10.36 L9.38,10.36 C8.89,10.36 8.638,10.71 8.638,11.046 C8.638,11.326 8.848,11.76 9.436,11.732 C9.604,11.718 9.912,11.718 10.234,11.718 C10.682,11.718 11.172,11.718 11.466,11.732 L11.494,11.732 L11.494,11.732 Z M18.158,11.718 C18.326,11.704 18.606,11.704 18.9,11.704 C19.32,11.704 19.768,11.704 20.048,11.718 L20.076,11.718 L20.076,11.718 C20.58,11.718 20.832,11.396 20.832,11.074 C20.832,10.738 20.566,10.402 20.048,10.402 C19.964,10.402 19.866,10.36 19.866,10.206 C19.866,9.156 19.838,7.7 19.824,7.14 C19.768,5.362 18.55,4.732 17.36,4.732 C16.632,4.732 15.918,4.97 15.47,5.32 C15.4,5.376 15.358,5.418 15.33,5.418 C15.302,5.418 15.288,5.404 15.274,5.376 C15.05,5.012 14.588,4.872 14.014,4.872 L13.93,4.872 L13.93,4.872 C13.79,4.872 13.762,4.886 13.594,4.886 C13.132,4.886 12.908,5.25 12.908,5.614 C12.908,5.978 13.118,6.314 13.538,6.314 L13.622,6.314 L13.622,6.314 C13.846,6.314 13.958,6.496 13.958,6.664 C13.9673333,7.12133333 13.9704444,7.43555556 13.9714815,7.68133333 L13.9714187,8.18597354 C13.9712249,8.21440668 13.9709827,8.24242662 13.970692,8.27033544 L13.9683668,8.43887116 C13.9625536,8.78294118 13.9497647,9.198 13.93,10.206 C13.93,10.36 13.888,10.402 13.762,10.402 L13.636,10.402 L13.636,10.402 C13.174,10.402 12.936,10.738 12.936,11.074 C12.936,11.116 12.936,11.76 13.692,11.718 C13.86,11.704 14.14,11.704 14.434,11.704 C14.854,11.704 15.302,11.704 15.582,11.718 L15.61,11.718 L15.61,11.718 C16.1,11.718 16.352,11.382 16.352,11.046 C16.352,10.794 16.198,10.374 15.582,10.402 C15.442,10.402 15.344,10.402 15.344,10.248 C15.3346667,9.828 15.3315556,9.43911111 15.3305185,9.08962963 L15.3305185,8.16355556 C15.3315556,7.896 15.3346667,7.672 15.344,7.504 C15.386,6.622 16.282,6.006 17.094,6.006 C17.738,6.006 18.34,6.398 18.396,7.35 C18.41,7.588 18.424,8.162 18.424,8.82 C18.424,9.268 18.41,9.758 18.41,10.192 C18.41,10.346 18.34,10.402 18.2,10.402 L18.102,10.402 L18.102,10.402 C17.64,10.402 17.402,10.738 17.402,11.074 C17.402,11.116 17.402,11.76 18.158,11.718 Z M25.27,12.922 C25.69,12.922 26.04,12.516 26.04,12.11 C26.04,11.914 25.97,11.718 25.788,11.564 C24.318,10.29 23.59,8.344 23.59,6.412 C23.59,4.48 24.318,2.562 25.774,1.344 C25.984,1.162 26.082,0.952 26.082,0.742 C26.082,0.35 25.746,0 25.34,0 C25.172,0 24.976,0.07 24.794,0.238 C23.086,1.806 22.246,4.158 22.246,6.496 C22.246,8.862 23.114,11.228 24.822,12.74 C24.976,12.866 25.13,12.922 25.27,12.922 Z M28.056,11.746 C28.7,11.704 29.484,11.69 30.282,11.69 C30.898,11.69 31.514,11.704 32.088,11.718 L32.228,11.718 L32.228,11.718 C33.376,11.718 33.88,11.214 34.174,10.346 L34.426,9.604 C34.468,9.492 34.482,9.394 34.482,9.31 C34.482,8.848 34.09,8.554 33.698,8.554 C33.376,8.554 33.054,8.736 32.914,9.184 C32.704,9.828 32.62,10.206 31.822,10.276 C31.164,10.332 30.058,10.304 29.568,10.332 C29.484,10.332 29.456,10.304 29.456,10.276 C29.456,10.248 29.47,10.22 29.498,10.192 C30.646,8.96 31.934,7.84 32.942,6.482 C33.698,5.46 34.006,4.564 34.006,3.78 C34.006,2.072 32.466,1.036 30.87,1.036 C28.868,1.036 27.734,2.604 27.734,3.192 C27.734,3.612 28.126,3.906 28.532,3.906 C28.784,3.906 29.05,3.794 29.218,3.5 C29.652,2.744 30.296,2.422 30.884,2.422 C31.682,2.422 32.382,3.01 32.382,3.934 L32.3814002,4.01939952 C32.3811624,4.03363331 32.3808369,4.04788561 32.3803951,4.06218382 L32.376123,4.1487429 C32.3281797,4.8345355 31.8981923,5.74269231 28.14,9.716 C27.972,9.898 27.776,10.038 27.608,10.15 C27.328,10.318 27.118,10.528 27.118,10.92 C27.118,11.354 27.468,11.746 28,11.746 L28.056,11.746 L28.056,11.746 Z M36.414,12.88 C36.568,12.88 36.722,12.824 36.876,12.698 C38.598,11.214 39.48,8.862 39.48,6.51 C39.48,4.172 38.626,1.834 36.904,0.294 C36.708,0.126 36.512,0.056 36.344,0.056 C35.952,0.056 35.658,0.378 35.658,0.742 C35.658,0.938 35.742,1.162 35.966,1.344 C37.38,2.534 38.094,4.452 38.094,6.398 C38.094,8.344 37.38,10.304 35.938,11.564 C35.756,11.732 35.672,11.928 35.672,12.11 C35.672,12.502 36.008,12.88 36.414,12.88 Z" id="ln(2)" fill="#6236FF" fill-rule="nonzero" opacity="0.490360078"></path>
                <line x1="-1.77809156e-15" y1="15.634" x2="48" y2="15.634" id="Line" stroke="#B29CFF" stroke-width="2" stroke-linecap="round"></line>
            </g>
            <g id="Rectangle-2" transform="translate(-5.000000, 17.000000)">
                <mask id="mask-2" fill="white">
                    <use xlink:href="#path-1"></use>
                </mask>
                <g id="Rectangle"></g>
                <path d="M58.76,71.88 C63.6325901,71.88 67.2828792,70.1543216 71.9985884,67.5054021 C72.4040956,67.2776196 72.8506456,66.8721709 72.4040956,65.7894419 C70.89921,62.140615 70.5058099,61.3325971 69.0906366,58.0100163 C68.8856121,57.5286544 67.8387917,57.2794015 67.5031502,57.6184799 C65.7866785,59.3525276 63.6317568,60.36 61.544,60.36 C59.144,60.36 58.088,59.208 57.8,56.424 L53.384,6.696 C52.904,1.032 51.752,-2.136 49.352,-4.248 C47.624,-5.976 44.84,-6.84 41.384,-6.84 C38.6,-6.84 35.24,-6.264 32.648,-5.304 C30.152,-4.44 28.328,-3.48 24.776,-0.888 C26.5703118,2.88371665 27.9160457,5.71250414 28.8132016,7.59836246 C29.0354677,8.06557497 29.7411444,8.616 30.6412298,8.03581165 C34.4753423,5.56437149 36.3195588,4.008 38.408,4.008 C40.424,4.008 41.672,5.544 41.96,8.616 L42.44,14.664 L12.68,60.168 C10.0899863,64.1393543 7.88817699,67.1013773 5.72545582,69.7523014 C5.48331055,70.0491075 5.67988415,70.632 6.01982622,70.632 C9.28236854,70.632 14.0812942,70.632 20.4166032,70.632 C20.8078751,70.632 21.8573974,69.9766317 21.9795076,69.6635424 C23.4410233,65.916232 24.6952663,63.4828934 27.176,59.496 C34.5468357,47.6529719 40.0749624,38.7707009 43.7603802,32.8491868 C43.9282535,32.5794579 44.3090748,32.6452901 44.3316122,32.9479351 C44.7645873,38.7621718 45.4140499,47.4835267 46.28,59.112 C46.664,63.816 47.816,66.888 50.024,68.904 C52.136,70.824 55.112,71.88 58.76,71.88 Z" id="λ" fill="url(#linearGradient-3)" fill-rule="nonzero" mask="url(#mask-2)"></path>
            </g>
        </g>
    </g>
</svg>